<svg width="100" height="35" viewBox="0 0 100 35" fill="none" xmlns="http://www.w3.org/2000/svg">
<path d="M10.692 1.52598V3.91998H6.92999V14H4.12199V3.91998H0.359985V1.52598H10.692Z" fill="white"/>
<path d="M12.3166 14V0.463982L14.9986 0.0319824V4.56798C15.1786 4.50798 15.4066 4.45398 15.6826 4.40598C15.9706 4.34598 16.2466 4.31598 16.5106 4.31598C17.2786 4.31598 17.9146 4.42398 18.4186 4.63998C18.9346 4.84398 19.3426 5.13798 19.6426 5.52198C19.9546 5.90598 20.1706 6.36198 20.2906 6.88998C20.4226 7.41798 20.4886 8.00598 20.4886 8.65398V14H17.8066V8.97798C17.8066 8.11398 17.6926 7.50198 17.4646 7.14198C17.2486 6.78198 16.8406 6.60198 16.2406 6.60198C16.0006 6.60198 15.7726 6.62598 15.5566 6.67398C15.3526 6.70998 15.1666 6.75198 14.9986 6.79998V14H12.3166Z" fill="white"/>
<path d="M22.4662 9.33798C22.4662 8.49798 22.5922 7.76598 22.8442 7.14198C23.1082 6.50598 23.4502 5.97798 23.8702 5.55798C24.2902 5.13798 24.7702 4.81998 25.3102 4.60398C25.8622 4.38798 26.4262 4.27998 27.0022 4.27998C28.3462 4.27998 29.4082 4.69398 30.1882 5.52198C30.9682 6.33798 31.3582 7.54398 31.3582 9.13998C31.3582 9.29598 31.3522 9.46998 31.3402 9.66198C31.3282 9.84198 31.3162 10.004 31.3042 10.148H25.2202C25.2802 10.7 25.5382 11.138 25.9942 11.462C26.4502 11.786 27.0622 11.948 27.8302 11.948C28.3222 11.948 28.8022 11.906 29.2702 11.822C29.7502 11.726 30.1402 11.612 30.4402 11.48L30.8002 13.658C30.6562 13.73 30.4642 13.802 30.2242 13.874C29.9842 13.946 29.7142 14.006 29.4142 14.054C29.1262 14.114 28.8142 14.162 28.4782 14.198C28.1422 14.234 27.8062 14.252 27.4702 14.252C26.6182 14.252 25.8742 14.126 25.2382 13.874C24.6142 13.622 24.0922 13.28 23.6722 12.848C23.2642 12.404 22.9582 11.882 22.7542 11.282C22.5622 10.682 22.4662 10.034 22.4662 9.33798ZM28.7662 8.31198C28.7542 8.08398 28.7122 7.86198 28.6402 7.64598C28.5802 7.42998 28.4782 7.23798 28.3342 7.06998C28.2022 6.90198 28.0282 6.76398 27.8122 6.65598C27.6082 6.54798 27.3502 6.49398 27.0382 6.49398C26.7382 6.49398 26.4802 6.54798 26.2642 6.65598C26.0482 6.75198 25.8682 6.88398 25.7242 7.05198C25.5802 7.21998 25.4662 7.41798 25.3822 7.64598C25.3102 7.86198 25.2562 8.08398 25.2202 8.31198H28.7662Z" fill="white"/>
<path d="M5.59799 34.162C4.91399 34.162 4.22999 34.138 3.54599 34.09C2.87399 34.054 2.17199 33.958 1.43999 33.802V21.706C2.01599 21.598 2.64599 21.52 3.32999 21.472C4.01399 21.412 4.64999 21.382 5.23799 21.382C6.02999 21.382 6.75599 21.442 7.41599 21.562C8.08799 21.67 8.66399 21.862 9.14399 22.138C9.62399 22.414 9.99599 22.78 10.26 23.236C10.536 23.68 10.674 24.232 10.674 24.892C10.674 25.888 10.194 26.674 9.23399 27.25C10.026 27.55 10.566 27.958 10.854 28.474C11.142 28.99 11.286 29.572 11.286 30.22C11.286 31.528 10.806 32.512 9.84599 33.172C8.89799 33.832 7.48199 34.162 5.59799 34.162ZM4.17599 28.564V31.786C4.37999 31.81 4.60199 31.828 4.84199 31.84C5.08199 31.852 5.34599 31.858 5.63399 31.858C6.47399 31.858 7.15199 31.738 7.66799 31.498C8.18399 31.258 8.44199 30.814 8.44199 30.166C8.44199 29.59 8.22599 29.182 7.79399 28.942C7.36199 28.69 6.74399 28.564 5.93999 28.564H4.17599ZM4.17599 26.422H5.54399C6.40799 26.422 7.02599 26.314 7.39799 26.098C7.76999 25.87 7.95599 25.51 7.95599 25.018C7.95599 24.514 7.76399 24.16 7.37999 23.956C6.99599 23.752 6.43199 23.65 5.68799 23.65C5.44799 23.65 5.18999 23.656 4.91399 23.668C4.63799 23.668 4.39199 23.68 4.17599 23.704V26.422Z" fill="white"/>
<path d="M19.0597 26.908C18.8197 26.848 18.5377 26.788 18.2137 26.728C17.8897 26.656 17.5417 26.62 17.1697 26.62C17.0017 26.62 16.7977 26.638 16.5577 26.674C16.3297 26.698 16.1557 26.728 16.0357 26.764V34H13.3537V25.036C13.8337 24.868 14.3977 24.712 15.0457 24.568C15.7057 24.412 16.4377 24.334 17.2417 24.334C17.3857 24.334 17.5597 24.346 17.7637 24.37C17.9677 24.382 18.1717 24.406 18.3757 24.442C18.5797 24.466 18.7837 24.502 18.9877 24.55C19.1917 24.586 19.3657 24.634 19.5097 24.694L19.0597 26.908Z" fill="white"/>
<path d="M20.3217 29.338C20.3217 28.498 20.4477 27.766 20.6997 27.142C20.9637 26.506 21.3057 25.978 21.7257 25.558C22.1457 25.138 22.6257 24.82 23.1657 24.604C23.7177 24.388 24.2817 24.28 24.8577 24.28C26.2017 24.28 27.2637 24.694 28.0437 25.522C28.8237 26.338 29.2137 27.544 29.2137 29.14C29.2137 29.296 29.2077 29.47 29.1957 29.662C29.1837 29.842 29.1717 30.004 29.1597 30.148H23.0757C23.1357 30.7 23.3937 31.138 23.8497 31.462C24.3057 31.786 24.9177 31.948 25.6857 31.948C26.1777 31.948 26.6577 31.906 27.1257 31.822C27.6057 31.726 27.9957 31.612 28.2957 31.48L28.6557 33.658C28.5117 33.73 28.3197 33.802 28.0797 33.874C27.8397 33.946 27.5697 34.006 27.2697 34.054C26.9817 34.114 26.6697 34.162 26.3337 34.198C25.9977 34.234 25.6617 34.252 25.3257 34.252C24.4737 34.252 23.7297 34.126 23.0937 33.874C22.4697 33.622 21.9477 33.28 21.5277 32.848C21.1197 32.404 20.8137 31.882 20.6097 31.282C20.4177 30.682 20.3217 30.034 20.3217 29.338ZM26.6217 28.312C26.6097 28.084 26.5677 27.862 26.4957 27.646C26.4357 27.43 26.3337 27.238 26.1897 27.07C26.0577 26.902 25.8837 26.764 25.6677 26.656C25.4637 26.548 25.2057 26.494 24.8937 26.494C24.5937 26.494 24.3357 26.548 24.1197 26.656C23.9037 26.752 23.7237 26.884 23.5797 27.052C23.4357 27.22 23.3217 27.418 23.2377 27.646C23.1657 27.862 23.1117 28.084 23.0757 28.312H26.6217Z" fill="white"/>
<path d="M34.9014 32.128C35.1654 32.128 35.4174 32.122 35.6574 32.11C35.8974 32.098 36.0894 32.08 36.2334 32.056V30.022C36.1254 29.998 35.9634 29.974 35.7474 29.95C35.5314 29.926 35.3334 29.914 35.1534 29.914C34.9014 29.914 34.6614 29.932 34.4334 29.968C34.2174 29.992 34.0254 30.046 33.8574 30.13C33.6894 30.214 33.5574 30.328 33.4614 30.472C33.3654 30.616 33.3174 30.796 33.3174 31.012C33.3174 31.432 33.4554 31.726 33.7314 31.894C34.0194 32.05 34.4094 32.128 34.9014 32.128ZM34.6854 24.28C35.4774 24.28 36.1374 24.37 36.6654 24.55C37.1934 24.73 37.6134 24.988 37.9254 25.324C38.2494 25.66 38.4774 26.068 38.6094 26.548C38.7414 27.028 38.8074 27.562 38.8074 28.15V33.73C38.4234 33.814 37.8894 33.91 37.2054 34.018C36.5214 34.138 35.6934 34.198 34.7214 34.198C34.1094 34.198 33.5514 34.144 33.0474 34.036C32.5554 33.928 32.1294 33.754 31.7694 33.514C31.4094 33.262 31.1334 32.938 30.9414 32.542C30.7494 32.146 30.6534 31.66 30.6534 31.084C30.6534 30.532 30.7614 30.064 30.9774 29.68C31.2054 29.296 31.5054 28.99 31.8774 28.762C32.2494 28.534 32.6754 28.372 33.1554 28.276C33.6354 28.168 34.1334 28.114 34.6494 28.114C34.9974 28.114 35.3034 28.132 35.5674 28.168C35.8434 28.192 36.0654 28.228 36.2334 28.276V28.024C36.2334 27.568 36.0954 27.202 35.8194 26.926C35.5434 26.65 35.0634 26.512 34.3794 26.512C33.9234 26.512 33.4734 26.548 33.0294 26.62C32.5854 26.68 32.2014 26.77 31.8774 26.89L31.5354 24.73C31.6914 24.682 31.8834 24.634 32.1114 24.586C32.3514 24.526 32.6094 24.478 32.8854 24.442C33.1614 24.394 33.4494 24.358 33.7494 24.334C34.0614 24.298 34.3734 24.28 34.6854 24.28Z" fill="white"/>
<path d="M43.9146 27.952C44.1786 27.664 44.4486 27.364 44.7246 27.052C45.0126 26.74 45.2886 26.434 45.5526 26.134C45.8166 25.822 46.0626 25.528 46.2906 25.252C46.5306 24.976 46.7346 24.736 46.9026 24.532H50.0886C49.4526 25.264 48.8286 25.966 48.2166 26.638C47.6166 27.298 46.9566 27.982 46.2366 28.69C46.5966 29.014 46.9686 29.404 47.3526 29.86C47.7366 30.304 48.1086 30.766 48.4686 31.246C48.8286 31.726 49.1586 32.206 49.4586 32.686C49.7586 33.166 50.0106 33.604 50.2146 34H47.1366C46.9446 33.688 46.7226 33.346 46.4706 32.974C46.2306 32.59 45.9726 32.212 45.6966 31.84C45.4206 31.456 45.1266 31.09 44.8146 30.742C44.5146 30.394 44.2146 30.1 43.9146 29.86V34H41.2326V20.464L43.9146 20.032V27.952Z" fill="white"/>
<path d="M53.2921 29.194C53.2921 30.022 53.4781 30.688 53.8501 31.192C54.2221 31.696 54.7741 31.948 55.5061 31.948C55.7461 31.948 55.9681 31.942 56.1721 31.93C56.3761 31.906 56.5441 31.882 56.6761 31.858V26.98C56.5081 26.872 56.2861 26.782 56.0101 26.71C55.7461 26.638 55.4761 26.602 55.2001 26.602C53.9281 26.602 53.2921 27.466 53.2921 29.194ZM59.3581 33.694C59.1181 33.766 58.8421 33.838 58.5301 33.91C58.2181 33.97 57.8881 34.024 57.5401 34.072C57.2041 34.12 56.8561 34.156 56.4961 34.18C56.1481 34.216 55.8121 34.234 55.4881 34.234C54.7081 34.234 54.0121 34.12 53.4001 33.892C52.7881 33.664 52.2721 33.34 51.8521 32.92C51.4321 32.488 51.1081 31.972 50.8801 31.372C50.6641 30.76 50.5561 30.076 50.5561 29.32C50.5561 28.552 50.6521 27.862 50.8441 27.25C51.0361 26.626 51.3121 26.098 51.6721 25.666C52.0321 25.234 52.4701 24.904 52.9861 24.676C53.5141 24.448 54.1141 24.334 54.7861 24.334C55.1581 24.334 55.4881 24.37 55.7761 24.442C56.0761 24.514 56.3761 24.616 56.6761 24.748V20.464L59.3581 20.032V33.694Z" fill="white"/>
<path d="M65.4874 32.128C65.7514 32.128 66.0034 32.122 66.2434 32.11C66.4834 32.098 66.6754 32.08 66.8194 32.056V30.022C66.7114 29.998 66.5494 29.974 66.3334 29.95C66.1174 29.926 65.9194 29.914 65.7394 29.914C65.4874 29.914 65.2474 29.932 65.0194 29.968C64.8034 29.992 64.6114 30.046 64.4434 30.13C64.2754 30.214 64.1434 30.328 64.0474 30.472C63.9514 30.616 63.9034 30.796 63.9034 31.012C63.9034 31.432 64.0414 31.726 64.3174 31.894C64.6054 32.05 64.9954 32.128 65.4874 32.128ZM65.2714 24.28C66.0634 24.28 66.7234 24.37 67.2514 24.55C67.7794 24.73 68.1994 24.988 68.5114 25.324C68.8354 25.66 69.0634 26.068 69.1954 26.548C69.3274 27.028 69.3934 27.562 69.3934 28.15V33.73C69.0094 33.814 68.4754 33.91 67.7914 34.018C67.1074 34.138 66.2794 34.198 65.3074 34.198C64.6954 34.198 64.1374 34.144 63.6334 34.036C63.1414 33.928 62.7154 33.754 62.3554 33.514C61.9954 33.262 61.7194 32.938 61.5274 32.542C61.3354 32.146 61.2394 31.66 61.2394 31.084C61.2394 30.532 61.3474 30.064 61.5634 29.68C61.7914 29.296 62.0914 28.99 62.4634 28.762C62.8354 28.534 63.2614 28.372 63.7414 28.276C64.2214 28.168 64.7194 28.114 65.2354 28.114C65.5834 28.114 65.8894 28.132 66.1534 28.168C66.4294 28.192 66.6514 28.228 66.8194 28.276V28.024C66.8194 27.568 66.6814 27.202 66.4054 26.926C66.1294 26.65 65.6494 26.512 64.9654 26.512C64.5094 26.512 64.0594 26.548 63.6154 26.62C63.1714 26.68 62.7874 26.77 62.4634 26.89L62.1214 24.73C62.2774 24.682 62.4694 24.634 62.6974 24.586C62.9374 24.526 63.1954 24.478 63.4714 24.442C63.7474 24.394 64.0354 24.358 64.3354 24.334C64.6474 24.298 64.9594 24.28 65.2714 24.28Z" fill="white"/>
<path d="M71.8186 24.856C72.2746 24.724 72.8626 24.604 73.5826 24.496C74.3026 24.376 75.0586 24.316 75.8506 24.316C76.6546 24.316 77.3206 24.424 77.8486 24.64C78.3886 24.844 78.8146 25.138 79.1266 25.522C79.4386 25.906 79.6606 26.362 79.7926 26.89C79.9246 27.418 79.9906 28.006 79.9906 28.654V34H77.3086V28.978C77.3086 28.114 77.1946 27.502 76.9666 27.142C76.7386 26.782 76.3126 26.602 75.6886 26.602C75.4966 26.602 75.2926 26.614 75.0766 26.638C74.8606 26.65 74.6686 26.668 74.5006 26.692V34H71.8186V24.856Z" fill="white"/>
<path d="M81.9682 29.266C81.9682 28.582 82.0762 27.94 82.2922 27.34C82.5202 26.728 82.8442 26.2 83.2642 25.756C83.6842 25.3 84.1942 24.94 84.7942 24.676C85.3942 24.412 86.0782 24.28 86.8462 24.28C87.3502 24.28 87.8122 24.328 88.2322 24.424C88.6522 24.508 89.0602 24.634 89.4562 24.802L88.8982 26.944C88.6462 26.848 88.3702 26.764 88.0702 26.692C87.7702 26.62 87.4342 26.584 87.0622 26.584C86.2702 26.584 85.6762 26.83 85.2802 27.322C84.8962 27.814 84.7042 28.462 84.7042 29.266C84.7042 30.118 84.8842 30.778 85.2442 31.246C85.6162 31.714 86.2582 31.948 87.1702 31.948C87.4942 31.948 87.8422 31.918 88.2142 31.858C88.5862 31.798 88.9282 31.702 89.2402 31.57L89.6182 33.766C89.3062 33.898 88.9162 34.012 88.4482 34.108C87.9802 34.204 87.4642 34.252 86.9002 34.252C86.0362 34.252 85.2922 34.126 84.6682 33.874C84.0442 33.61 83.5282 33.256 83.1202 32.812C82.7242 32.368 82.4302 31.846 82.2382 31.246C82.0582 30.634 81.9682 29.974 81.9682 29.266Z" fill="white"/>
<path d="M90.5112 29.338C90.5112 28.498 90.6372 27.766 90.8892 27.142C91.1532 26.506 91.4952 25.978 91.9152 25.558C92.3352 25.138 92.8152 24.82 93.3552 24.604C93.9072 24.388 94.4712 24.28 95.0472 24.28C96.3912 24.28 97.4532 24.694 98.2332 25.522C99.0132 26.338 99.4032 27.544 99.4032 29.14C99.4032 29.296 99.3972 29.47 99.3852 29.662C99.3732 29.842 99.3612 30.004 99.3492 30.148H93.2652C93.3252 30.7 93.5832 31.138 94.0392 31.462C94.4952 31.786 95.1072 31.948 95.8752 31.948C96.3672 31.948 96.8472 31.906 97.3152 31.822C97.7952 31.726 98.1852 31.612 98.4852 31.48L98.8452 33.658C98.7012 33.73 98.5092 33.802 98.2692 33.874C98.0292 33.946 97.7592 34.006 97.4592 34.054C97.1712 34.114 96.8592 34.162 96.5232 34.198C96.1872 34.234 95.8512 34.252 95.5152 34.252C94.6632 34.252 93.9192 34.126 93.2832 33.874C92.6592 33.622 92.1372 33.28 91.7172 32.848C91.3092 32.404 91.0032 31.882 90.7992 31.282C90.6072 30.682 90.5112 30.034 90.5112 29.338ZM96.8112 28.312C96.7992 28.084 96.7572 27.862 96.6852 27.646C96.6252 27.43 96.5232 27.238 96.3792 27.07C96.2472 26.902 96.0732 26.764 95.8572 26.656C95.6532 26.548 95.3952 26.494 95.0832 26.494C94.7832 26.494 94.5252 26.548 94.3092 26.656C94.0932 26.752 93.9132 26.884 93.7692 27.052C93.6252 27.22 93.5112 27.418 93.4272 27.646C93.3552 27.862 93.3012 28.084 93.2652 28.312H96.8112Z" fill="white"/>
<path fill-rule="evenodd" clip-rule="evenodd" d="M49.7603 9.00008L41 9.00008C40.4477 9.00008 40 9.4478 40 10.0001C40 10.5524 40.4477 11.0001 41 11.0001L49.7603 11.0001C50.2283 13.4676 52.3963 15.3334 55 15.3334C57.9455 15.3334 60.3333 12.9456 60.3333 10.0001C60.3333 7.05456 57.9455 4.66675 55 4.66675C52.3963 4.66675 50.2283 6.53256 49.7603 9.00008Z" fill="white"/>
</svg>
